<mxfile host="app.diagrams.net" modified="2024-03-10T12:31:44.714Z" agent="Mozilla/5.0 (X11; Linux x86_64; rv:122.0) Gecko/20100101 Firefox/122.0" version="24.0.2" etag="7uYA9WCHgbqWY7DX0WFk" type="github">
  <diagram name="Page-1" id="Ix-445wSyXX7Rc5fptbm">
    <mxGraphModel>
      <root>
        <mxCell id="0" />
        <mxCell id="1" parent="0" />
      </root>
    </mxGraphModel>
  </diagram>
</mxfile>
